<?xml version="1.0" encoding="UTF-8" standalone="no"?>
<svg
   xmlns:dc="http://purl.org/dc/elements/1.1/"
   xmlns:cc="http://creativecommons.org/ns#"
   xmlns:rdf="http://www.w3.org/1999/02/22-rdf-syntax-ns#"
   xmlns:svg="http://www.w3.org/2000/svg"
   xmlns="http://www.w3.org/2000/svg"
   xmlns:sodipodi="http://sodipodi.sourceforge.net/DTD/sodipodi-0.dtd"
   xmlns:inkscape="http://www.inkscape.org/namespaces/inkscape"
   width="100"
   height="100"
   viewBox="0 0 100 100"
   id="logo"
   version="1.1"
   inkscape:version="1.0.1 (3bc2e813f5, 2020-09-07)"
   sodipodi:docname="logo-favicon.svg"
   inkscape:export-filename="/home/sheodox/code/js/Overseer/src/static/assets/favicon.png"
   inkscape:export-xdpi="480.10001"
   inkscape:export-ydpi="480.10001">
  <defs
     id="defs4" />
  <sodipodi:namedview
     id="base"
     pagecolor="#ffffff"
     bordercolor="#666666"
     borderopacity="1.0"
     inkscape:pageopacity="0.0"
     inkscape:pageshadow="2"
     inkscape:zoom="3.3904047"
     inkscape:cx="11.585442"
     inkscape:cy="54.84689"
     inkscape:document-units="px"
     inkscape:current-layer="layer1"
     showgrid="false"
     units="px"
     inkscape:window-width="2560"
     inkscape:window-height="1377"
     inkscape:window-x="1912"
     inkscape:window-y="-8"
     inkscape:window-maximized="1"
     inkscape:document-rotation="0"
     inkscape:snap-grids="true" />
  <metadata
     id="metadata7">
    <rdf:RDF>
      <cc:Work
         rdf:about="">
        <dc:format>image/svg+xml</dc:format>
        <dc:type
           rdf:resource="http://purl.org/dc/dcmitype/StillImage" />
        <dc:title></dc:title>
      </cc:Work>
    </rdf:RDF>
  </metadata>
  <g
     inkscape:groupmode="layer"
     id="layer2"
     inkscape:label="Background"
     sodipodi:insensitive="true">
    <rect
       style="opacity:1;fill:#1c1f28;fill-opacity:1;fill-rule:nonzero;stroke:none;stroke-width:1.504;stroke-linecap:round;stroke-linejoin:bevel;stroke-miterlimit:9.1;stroke-dasharray:none;stroke-opacity:1;paint-order:markers stroke fill"
       id="rect14"
       width="100"
       height="100"
       x="0"
       y="0"
       ry="49.874691" />
  </g>
  <g
     inkscape:label="shape"
     inkscape:groupmode="layer"
     id="layer1"
     transform="translate(0,-952.36216)">
    <path
       id="path4235-3"
       style="fill:#00ffc3;fill-opacity:1;fill-rule:nonzero;stroke:none;stroke-width:0.99888;stroke-opacity:1"
       d="m 51.603484,959.64484 c -13.366911,0 -24.127479,3.68347 -24.127479,8.26188 v 60.38198 l -8.606354,2.1142 -17.294746,-3.9536 17.572119,8.1119 8.328881,-2.2694 48.257,-11.8674 13.972154,-5.7093 6.242832,-16.03092 -8.690353,13.42962 -11.524621,3.5931 v -47.80018 c 0,-4.57841 -10.76252,-8.26188 -24.129433,-8.26188 z m -0.06056,31.01713 c 0.02019,-5e-5 0.04037,-5e-5 0.06056,0 6.731742,-10e-4 12.189827,5.44172 12.190706,12.15703 -7.95e-4,6.7154 -5.458905,12.1585 -12.190706,12.1572 -6.731038,2e-4 -12.187956,-5.4426 -12.188752,-12.1572 7.94e-4,-6.69103 5.420879,-12.124 12.128199,-12.15703 z m 33.837467,32.06363 -9.647486,1.5842 -48.257,11.549 -12.360549,5.3645 -8.3270282,13.4216 10.4815462,-11.2412 11.639868,-2.878 c 3.333174,3.1929 12.196792,5.4676 22.693738,5.4676 13.366913,0 24.129433,-3.6835 24.129433,-8.2619 v -8.7685 l 8.235223,-1.4516 12.606765,6.1301 z"
       sodipodi:nodetypes="ssccccccccccsssccccsscccccccsscccc" />
    <path
       id="path4235-3-3"
       style="fill:#00ffff;fill-opacity:1;fill-rule:nonzero;stroke:none;stroke-width:0.99888;stroke-opacity:1"
       d="m 53.546663,957.33673 c -13.366911,0 -24.127479,3.68347 -24.127479,8.26188 v 60.38199 l -8.606354,2.1142 -17.2947455,-3.9536 17.5721185,8.1119 8.328881,-2.2694 48.257,-11.8674 13.97215,-5.7093 6.24284,-16.03093 -8.690357,13.42963 -11.524621,3.5931 v -47.80019 c 0,-4.57841 -10.76252,-8.26188 -24.129433,-8.26188 z m -0.06056,31.01713 c 0.02019,-5e-5 0.04037,-5e-5 0.06056,0 6.731742,-0.001 12.189827,5.44172 12.190706,12.15704 -7.95e-4,6.7154 -5.458905,12.1585 -12.190706,12.1572 -6.731038,2e-4 -12.187956,-5.4426 -12.188752,-12.1572 7.94e-4,-6.69104 5.420879,-12.12401 12.128199,-12.15704 z m 33.837467,32.06364 -9.647486,1.5842 -48.257,11.549 -12.360549,5.3645 -8.3270275,13.4216 10.4815455,-11.2412 11.639868,-2.878 c 3.333174,3.1929 12.196792,5.4676 22.693738,5.4676 13.366913,0 24.129433,-3.6835 24.129433,-8.2619 v -8.7685 l 8.235223,-1.4516 12.606769,6.1301 z"
       sodipodi:nodetypes="ssccccccccccsssccccsscccccccsscccc" />
    <path
       id="path4235-3-3-6"
       style="fill:#ffffff;fill-opacity:1;fill-rule:nonzero;stroke:none;stroke-width:0.99888;stroke-opacity:1"
       d="m 56.573237,955.45573 c -13.366912,0 -24.12748,3.68347 -24.12748,8.26188 v 60.38199 l -8.606354,2.1142 -17.2947442,-3.9536 17.5721172,8.1119 8.328881,-2.2694 48.257001,-11.8674 13.97215,-5.7093 6.242842,-16.03089 -8.69036,13.42959 -11.524621,3.5931 v -47.80019 c 0,-4.57841 -10.762519,-8.26188 -24.129432,-8.26188 z m -0.06056,31.01713 c 0.02019,-5e-5 0.04037,-5e-5 0.06056,0 6.731741,-10e-4 12.189827,5.44172 12.190705,12.15705 -7.94e-4,6.71539 -5.458905,12.15849 -12.190705,12.15719 -6.731038,2e-4 -12.187956,-5.4426 -12.188753,-12.15719 7.94e-4,-6.69105 5.420879,-12.12402 12.1282,-12.15705 z m 33.837467,32.06364 -9.647486,1.5842 -48.257,11.549 -12.360549,5.3645 -8.327027,13.4216 10.481545,-11.2412 11.639868,-2.878 c 3.333174,3.1929 12.196792,5.4676 22.693738,5.4676 13.366913,0 24.129433,-3.6835 24.129433,-8.2619 v -8.7685 l 8.235223,-1.4516 12.606771,6.1301 z"
       sodipodi:nodetypes="ssccccccccccsssccccsscccccccsscccc" />
  </g>
</svg>
