<?xml version="1.0" encoding="UTF-8" standalone="no"?>
<!-- Created with Inkscape (http://www.inkscape.org/) -->
<svg id="svg2" xmlns:rdf="http://www.w3.org/1999/02/22-rdf-syntax-ns#" xmlns="http://www.w3.org/2000/svg" height="47.803mm" width="104.93mm" version="1.1" xmlns:cc="http://creativecommons.org/ns#" xmlns:dc="http://purl.org/dc/elements/1.1/" viewBox="0 0 371.78345 169.37895">
 <metadata id="metadata7">
  <rdf:RDF>
   <cc:Work rdf:about="">
    <dc:format>image/svg+xml</dc:format>
    <dc:type rdf:resource="http://purl.org/dc/dcmitype/StillImage"/>
    <dc:title/>
   </cc:Work>
  </rdf:RDF>
 </metadata>
 <g id="layer2">
  <rect id="rect4449" height="169.55" width="371.63" stroke="#000" y="-.41906" x=".25" stroke-width=".5"/>
 </g>
 <g id="layer1" transform="translate(-99.675 -416.03)" stroke="#000" stroke-width="0.5">
  <g id="g4440" transform="translate(0 -.071257)">
   <path id="path4302" d="m99.925 416.2v56.176h51.716v-56.176h-51.716z" fill="#51636b"/>
   <path id="path4300" d="m152.04 416.21v56.176h65.026v-56.176h-65.026z" fill="#38464d"/>
   <path id="path4298" d="m217.46 416.21v56.176h136.07v-56.176h-136.07z" fill="#1e292e"/>
   <path id="path4296" d="m353.92 416.19v56.176h65.026v-56.176h-65.026z" fill="#13222a"/>
   <path id="path4253" d="m419.34 416.19v56.176h51.718v-56.176h-51.718z" fill="#0a1921"/>
  </g>
  <g id="g4433" transform="translate(0 -.076056)">
   <path id="path4312" d="m99.925 472.62v56.176h51.716v-56.176h-51.716z" fill="#51636b"/>
   <path id="path4310" d="m152.04 472.63v56.176h65.026v-56.176h-65.026z" fill="#38464d"/>
   <path id="path4308" d="m217.46 472.62v56.176h136.07v-56.176h-136.07z" fill="#1e292e"/>
   <path id="path4306" d="m353.92 472.61v56.176h65.026v-56.176h-65.026z" fill="#02c155"/>
   <path id="path4253-7" d="m419.34 472.61v56.176h51.718v-56.176h-51.718z" fill="#0a1921"/>
  </g>
  <g id="g4426" transform="translate(0 -.071257)">
   <path id="path4322" d="m99.925 529.05v56.176h51.716v-56.176h-51.716z" fill="#51636b"/>
   <path id="path4320" d="m152.04 529.06v56.176h65.026v-56.176h-65.026z" fill="#38464d"/>
   <path id="path4318" d="m217.46 529.04v56.176h136.07v-56.176h-136.07z" fill="#1e292e"/>
   <path id="path4316" d="m353.92 529.03v56.176h65.026v-56.176h-65.026z" fill="#13222a"/>
   <path id="path4253-4" d="m419.34 529.02v56.176h51.718v-56.176h-51.718z" fill="#0a1921"/>
  </g>
 </g>
</svg>
