<?xml version="1.0" encoding="UTF-8" standalone="no"?>
<!-- Created with Inkscape (http://www.inkscape.org/) -->

<svg
   xmlns:dc="http://purl.org/dc/elements/1.1/"
   xmlns:cc="http://creativecommons.org/ns#"
   xmlns:rdf="http://www.w3.org/1999/02/22-rdf-syntax-ns#"
   xmlns:svg="http://www.w3.org/2000/svg"
   xmlns="http://www.w3.org/2000/svg"
   xmlns:sodipodi="http://sodipodi.sourceforge.net/DTD/sodipodi-0.dtd"
   xmlns:inkscape="http://www.inkscape.org/namespaces/inkscape"
   width="100"
   height="100"
   viewBox="0 0 100 100"
   id="echo-icon"
   version="1.1"
   inkscape:version="0.91 r13725"
   sodipodi:docname="echo-icon.svg">
  <defs
     id="defs4146" />
  <sodipodi:namedview
     id="base"
     pagecolor="#ffffff"
     bordercolor="#666666"
     borderopacity="1.0"
     inkscape:pageopacity="0.0"
     inkscape:pageshadow="2"
     inkscape:zoom="5.6"
     inkscape:cx="43.012894"
     inkscape:cy="47.791148"
     inkscape:document-units="px"
     inkscape:current-layer="layer1"
     showgrid="false"
     units="px"
     inkscape:window-width="1920"
     inkscape:window-height="1017"
     inkscape:window-x="1912"
     inkscape:window-y="-8"
     inkscape:window-maximized="1" />
  <metadata
     id="metadata4149">
    <rdf:RDF>
      <cc:Work
         rdf:about="">
        <dc:format>image/svg+xml</dc:format>
        <dc:type
           rdf:resource="http://purl.org/dc/dcmitype/StillImage" />
        <dc:title></dc:title>
      </cc:Work>
    </rdf:RDF>
  </metadata>
  <g
     inkscape:label="Layer 1"
     inkscape:groupmode="layer"
     id="layer1"
     transform="translate(0,-952.36216)">
    <path
       style="fill:#000000;fill-opacity:1;stroke:none;stroke-width:0.5;stroke-linecap:butt;stroke-miterlimit:4;stroke-dasharray:none;stroke-opacity:1"
       d="m 5.0976562,42.347656 c -0.9153035,0 -1.7689283,1.133768 -2.5039062,3.080078 C 1.0385977,45.688564 0,46.149018 0,46.679688 l 0,27.042968 c 0,0.1131 0.05583826,0.220472 0.14453125,0.326172 C 0.32916249,85.790028 2.4660841,95 5.0976562,95 L 25.15625,95 c 2.544877,0 4.628004,-8.613128 4.929688,-19.798828 l 40.082031,0 C 70.475686,86.386872 72.599538,95 75.195312,95 l 19.861329,0 c 2.808681,0 5.070309,-10.07675 5.070309,-22.59375 l 0,-7.464844 c 0,-1.7113 -0.0468,-3.370203 -0.12695,-4.970703 l 0,-13.291015 c 0,-0.506181 -0.940781,-0.950427 -2.376953,-1.216797 -0.752615,-1.96754 -1.627324,-3.115235 -2.566406,-3.115235 l -19.861329,0 c -0.898347,0 -1.7385,1.041636 -2.46875,2.853516 l -45.148437,0 C 26.86217,43.389122 26.037028,42.347656 25.15625,42.347656 l -20.0585938,0 z M 15.357422,50.5 a 10.357142,10 0 0 1 10.357422,10 10.357142,10 0 0 1 -10.357422,10 A 10.357142,10 0 0 1 5,60.5 10.357142,10 0 0 1 15.357422,50.5 Z m 70,0 a 10.357142,10 0 0 1 10.357422,10 10.357142,10 0 0 1 -10.357422,10 A 10.357142,10 0 0 1 75,60.5 10.357142,10 0 0 1 85.357422,50.5 Z"
       transform="translate(0,952.36216)"
       id="rect4692"
       inkscape:connector-curvature="0" />
    <path
       style="fill:#000000;fill-opacity:1;stroke:none;stroke-width:0.5;stroke-linecap:butt;stroke-miterlimit:4;stroke-dasharray:none;stroke-opacity:1"
       d="m 30,963.76255 0,8.96484 40,0 0,-8.96484 -40,0 z m 0,9.91211 0,8.96484 40,0 0,-8.96484 -40,0 z m 0,9.72266 0,8.96484 40,0 0,-8.96484 -40,0 z"
       id="rect4723"
       inkscape:connector-curvature="0" />
  </g>
</svg>
