<?xml version="1.0" encoding="UTF-8" standalone="no"?>
<!-- Created with Inkscape (http://www.inkscape.org/) -->

<svg
   xmlns:dc="http://purl.org/dc/elements/1.1/"
   xmlns:cc="http://creativecommons.org/ns#"
   xmlns:rdf="http://www.w3.org/1999/02/22-rdf-syntax-ns#"
   xmlns:svg="http://www.w3.org/2000/svg"
   xmlns="http://www.w3.org/2000/svg"
   xmlns:sodipodi="http://sodipodi.sourceforge.net/DTD/sodipodi-0.dtd"
   xmlns:inkscape="http://www.inkscape.org/namespaces/inkscape"
   width="100"
   height="100"
   viewBox="0 0 100 100"
   id="echo-icon"
   version="1.1"
   inkscape:version="0.92.4 (5da689c313, 2019-01-14)"
   sodipodi:docname="echo-icon.svg">
  <defs
     id="defs4146" />
  <sodipodi:namedview
     id="base"
     pagecolor="#ffffff"
     bordercolor="#666666"
     borderopacity="1.0"
     inkscape:pageopacity="0.0"
     inkscape:pageshadow="2"
     inkscape:zoom="7.919596"
     inkscape:cx="-2.3244029"
     inkscape:cy="55.231512"
     inkscape:document-units="px"
     inkscape:current-layer="layer1"
     showgrid="false"
     units="px"
     inkscape:window-width="2560"
     inkscape:window-height="1379"
     inkscape:window-x="1920"
     inkscape:window-y="1104"
     inkscape:window-maximized="1" />
  <metadata
     id="metadata4149">
    <rdf:RDF>
      <cc:Work
         rdf:about="">
        <dc:format>image/svg+xml</dc:format>
        <dc:type
           rdf:resource="http://purl.org/dc/dcmitype/StillImage" />
        <dc:title />
      </cc:Work>
    </rdf:RDF>
  </metadata>
  <g
     inkscape:label="Layer 1"
     inkscape:groupmode="layer"
     id="layer1"
     transform="translate(0,-952.36216)">
    <path
       style="fill-opacity:1;stroke:none;stroke-width:0.0930176;stroke-linecap:butt;stroke-miterlimit:4;stroke-dasharray:none;stroke-opacity:1"
       d="m -97.385902,962.94543 c -0.170277,0 -0.328113,0.21214 -0.464844,0.57422 -0.289315,0.0485 -0.482421,0.1337 -0.482421,0.23242 v 5.03125 c 0,0.021 0.01083,0.0408 0.02734,0.0606 0.03435,2.18427 0.430357,3.89648 0.919922,3.89648 h 3.732422 c 0.473438,0 0.859892,-1.60265 0.916016,-3.68359 h 7.457031 c 0.05725,2.08094 0.452641,3.68359 0.935547,3.68359 h 3.695312 c 0.522514,0 0.94336,-1.87452 0.94336,-4.20312 v -1.38867 c 0,-0.31836 -0.0085,-0.62608 -0.02344,-0.92383 v -2.47266 c 0,-0.0942 -0.176179,-0.17701 -0.443359,-0.22656 -0.140012,-0.36604 -0.301861,-0.58008 -0.476563,-0.58008 h -3.695312 c -0.167125,0 -0.323133,0.19417 -0.458985,0.53125 h -8.398437 c -0.133192,-0.33711 -0.287315,-0.53125 -0.451172,-0.53125 z m 1.910156,1.51758 a 1.9267931,1.8603521 0 0 1 1.925782,1.85938 1.9267931,1.8603521 0 0 1 -1.925782,1.86132 1.9267931,1.8603521 0 0 1 -1.927734,-1.86132 1.9267931,1.8603521 0 0 1 1.927734,-1.85938 z m 13.021485,0 a 1.9267931,1.8603521 0 0 1 1.927734,1.85938 1.9267931,1.8603521 0 0 1 -1.927734,1.86132 1.9267931,1.8603521 0 0 1 -1.925782,-1.86132 1.9267931,1.8603521 0 0 1 1.925782,-1.85938 z m -6.566406,41.59959 a 1.4520943,1.4520943 0 0 0 -1.451172,1.4511 1.4520943,1.4520943 0 0 0 1.451172,1.4532 1.4520943,1.4520943 0 0 0 1.453124,-1.4532 1.4520943,1.4520943 0 0 0 -1.453124,-1.4511 z m 0,4 a 1.4520943,1.4520943 0 0 0 -1.451172,1.4511 1.4520943,1.4520943 0 0 0 1.451172,1.4532 1.4520943,1.4520943 0 0 0 1.453124,-1.4532 1.4520943,1.4520943 0 0 0 -1.453124,-1.4511 z m -8.158204,5.459 c -0.542134,0 -0.980468,0.4521 -0.980468,1.0117 v 1.9238 c 0,0.5597 0.438334,1.0117 0.980468,1.0117 h 16.28711 c 0.542133,0 0.978515,-0.452 0.978515,-1.0117 v -1.9238 c 0,-0.5596 -0.436382,-1.0117 -0.978515,-1.0117 z m 0,5 c -0.542134,0 -0.980468,0.4501 -0.980468,1.0097 v 1.9258 c 0,0.5597 0.438334,1.0117 0.980468,1.0117 h 16.28711 c 0.542133,0 0.978515,-0.452 0.978515,-1.0117 v -1.9258 c 0,-0.5596 -0.436382,-1.0097 -0.978515,-1.0097 z m 0.03125,5 c -0.542134,0 -0.978515,0.4501 -0.978515,1.0097 v 1.9258 c 0,0.5597 0.436381,1.0117 0.978515,1.0117 h 16.289063 c 0.542134,0 0.978515,-0.452 0.978515,-1.0117 v -1.9258 c 0,-0.5596 -0.436381,-1.0097 -0.978515,-1.0097 z"
       id="path2169"
       inkscape:connector-curvature="0" />
    <path
       style="fill-opacity:1"
       d="m -45.015851,958.1657 c -2.763142,0 -4.986328,2.05609 -4.986328,4.60937 v 72.98243 c 0,2.5533 2.223186,4.6094 4.986328,4.6094 h 38.5136715 c 2.763141,0 4.986328,-2.0561 4.986328,-4.6094 v -72.98243 c 0,-2.55328 -2.223187,-4.60937 -4.986328,-4.60937 z m 21.035156,6.29492 h 3.732422 c 0.163857,0 0.31798,0.19414 0.451172,0.53125 h 8.398437 c 0.135852,-0.33708 0.29186,-0.53125 0.458985,-0.53125 h 3.6953115 c 0.174702,0 0.336551,0.21404 0.476563,0.58008 0.26718,0.0496 0.443359,0.13236 0.443359,0.22656 v 2.47266 c 0.01494,0.29775 0.02344,0.60547 0.02344,0.92383 v 1.38867 c 0,2.3286 -0.420846,4.20312 -0.94336,4.20312 h -3.6953135 c -0.482906,0 -0.878297,-1.60265 -0.935547,-3.68359 h -7.457031 c -0.05612,2.08094 -0.442578,3.68359 -0.916016,3.68359 h -3.732422 c -0.489565,0 -0.885572,-1.71221 -0.919922,-3.89648 -0.01651,-0.0198 -0.02734,-0.0395 -0.02734,-0.0605 v -5.0313 c 0,-0.0987 0.193107,-0.18392 0.482422,-0.23242 0.136731,-0.36208 0.294567,-0.57422 0.464844,-0.57422 z m 1.910156,1.51758 a 1.9267931,1.8603521 0 0 0 -1.927734,1.85937 1.9267931,1.8603521 0 0 0 1.927734,1.86133 1.9267931,1.8603521 0 0 0 1.925782,-1.86133 1.9267931,1.8603521 0 0 0 -1.925782,-1.85937 z m 13.0214845,0 a 1.9267931,1.8603521 0 0 0 -1.9257805,1.85937 1.9267931,1.8603521 0 0 0 1.9257805,1.86133 1.9267931,1.8603521 0 0 0 1.927734,-1.86133 1.9267931,1.8603521 0 0 0 -1.927734,-1.85937 z m -6.5664065,41.5996 a 1.4520943,1.4520943 0 0 1 1.453126,1.4512 1.4520943,1.4520943 0 0 1 -1.453126,1.4531 1.4520943,1.4520943 0 0 1 -1.451171,-1.4531 1.4520943,1.4520943 0 0 1 1.451171,-1.4512 z m 0,4 a 1.4520943,1.4520943 0 0 1 1.453126,1.4512 1.4520943,1.4520943 0 0 1 -1.453126,1.4531 1.4520943,1.4520943 0 0 1 -1.451171,-1.4531 1.4520943,1.4520943 0 0 1 1.451171,-1.4512 z m -8.158203,5.459 h 16.2871095 c 0.542133,0 0.978515,0.4522 0.978515,1.0118 v 1.9238 c 0,0.5597 -0.436382,1.0117 -0.978515,1.0117 H -23.773664 c -0.542134,0 -0.980468,-0.452 -0.980468,-1.0117 v -1.9238 c 0,-0.5596 0.438334,-1.0118 0.980468,-1.0118 z m 0,5 h 16.2871095 c 0.542133,0 0.978515,0.4502 0.978515,1.0098 v 1.9258 c 0,0.5597 -0.436382,1.0117 -0.978515,1.0117 H -23.773664 c -0.542134,0 -0.980468,-0.452 -0.980468,-1.0117 v -1.9258 c 0,-0.5596 0.438334,-1.0098 0.980468,-1.0098 z m 0.03125,5 h 16.2890625 c 0.542134,0 0.978516,0.4502 0.978516,1.0098 v 1.9258 c -1e-6,0.5597 -0.436382,1.0117 -0.978516,1.0117 H -23.742414 c -0.542134,0 -0.978515,-0.452 -0.978515,-1.0117 v -1.9258 c 0,-0.5596 0.436381,-1.0098 0.978515,-1.0098 z"
       id="rect854"
       inkscape:connector-curvature="0" />
    <path
       style="fill-opacity:1;stroke-width:1.0218066"
       d="M 30.767578 7.5 C 27.572798 7.5 25 10.149382 25 13.441406 L 25 86.558594 C 25 89.850618 27.572798 92.5 30.767578 92.5 L 69.232422 92.5 C 72.427202 92.5 75 89.850618 75 86.558594 L 75 13.441406 C 75 10.149382 72.427202 7.5 69.232422 7.5 L 30.767578 7.5 z M 41.634766 14.75 L 45.365234 14.75 C 45.529091 14.75 45.683214 14.94414 45.816406 15.28125 L 54.214844 15.28125 C 54.350696 14.94417 54.506703 14.75 54.673828 14.75 L 58.369141 14.75 C 58.543843 14.75 58.705691 14.964038 58.845703 15.330078 C 59.112883 15.379628 59.289062 15.462441 59.289062 15.556641 L 59.289062 18.029297 C 59.304002 18.327047 59.3125 18.634765 59.3125 18.953125 L 59.3125 20.341797 C 59.3125 22.670397 58.891655 24.544922 58.369141 24.544922 L 54.673828 24.544922 C 54.190922 24.544922 53.795531 22.942268 53.738281 20.861328 L 46.28125 20.861328 C 46.225126 22.942268 45.838672 24.544922 45.365234 24.544922 L 41.632812 24.544922 C 41.143248 24.544922 40.747241 22.832707 40.712891 20.648438 C 40.696381 20.628637 40.6875 20.608891 40.6875 20.587891 L 40.6875 15.556641 C 40.6875 15.457921 40.880607 15.372719 41.169922 15.324219 C 41.306653 14.962139 41.464489 14.75 41.634766 14.75 z M 43.544922 16.267578 A 1.9267931 1.8603521 0 0 0 41.617188 18.126953 A 1.9267931 1.8603521 0 0 0 43.544922 19.988281 A 1.9267931 1.8603521 0 0 0 45.470703 18.126953 A 1.9267931 1.8603521 0 0 0 43.544922 16.267578 z M 56.566406 16.267578 A 1.9267931 1.8603521 0 0 0 54.640625 18.126953 A 1.9267931 1.8603521 0 0 0 56.566406 19.988281 A 1.9267931 1.8603521 0 0 0 58.494141 18.126953 A 1.9267931 1.8603521 0 0 0 56.566406 16.267578 z M 50 57.867188 A 1.4520943 1.4520943 0 0 1 51.453125 59.318359 A 1.4520943 1.4520943 0 0 1 50 60.771484 A 1.4520943 1.4520943 0 0 1 48.548828 59.318359 A 1.4520943 1.4520943 0 0 1 50 57.867188 z M 50 61.867188 A 1.4520943 1.4520943 0 0 1 51.453125 63.318359 A 1.4520943 1.4520943 0 0 1 50 64.771484 A 1.4520943 1.4520943 0 0 1 48.548828 63.318359 A 1.4520943 1.4520943 0 0 1 50 61.867188 z M 41.841797 67.326172 L 58.128906 67.326172 C 58.671039 67.326172 59.107422 67.778291 59.107422 68.337891 L 59.107422 70.261719 C 59.107422 70.821419 58.671039 71.273438 58.128906 71.273438 L 41.841797 71.273438 C 41.299663 71.273438 40.861328 70.821419 40.861328 70.261719 L 40.861328 68.337891 C 40.861328 67.778291 41.299663 67.326172 41.841797 67.326172 z M 41.841797 72.326172 L 58.128906 72.326172 C 58.671039 72.326172 59.107422 72.776337 59.107422 73.335938 L 59.107422 75.261719 C 59.107422 75.821419 58.671039 76.273438 58.128906 76.273438 L 41.841797 76.273438 C 41.299663 76.273438 40.861328 75.821419 40.861328 75.261719 L 40.861328 73.335938 C 40.861328 72.776337 41.299663 72.326172 41.841797 72.326172 z M 41.873047 77.326172 L 58.162109 77.326172 C 58.704243 77.326172 59.140625 77.776337 59.140625 78.335938 L 59.140625 80.261719 C 59.140625 80.821419 58.704243 81.273438 58.162109 81.273438 L 41.873047 81.273438 C 41.330913 81.273438 40.894531 80.821419 40.894531 80.261719 L 40.894531 78.335938 C 40.894531 77.776337 41.330913 77.326172 41.873047 77.326172 z "
       transform="translate(0,952.36216)"
       id="rect859" />
  </g>
</svg>
