<?xml version="1.0" encoding="UTF-8" standalone="no"?>
<!-- Created with Inkscape (http://www.inkscape.org/) -->

<svg
   xmlns:dc="http://purl.org/dc/elements/1.1/"
   xmlns:cc="http://creativecommons.org/ns#"
   xmlns:rdf="http://www.w3.org/1999/02/22-rdf-syntax-ns#"
   xmlns:svg="http://www.w3.org/2000/svg"
   xmlns="http://www.w3.org/2000/svg"
   xmlns:sodipodi="http://sodipodi.sourceforge.net/DTD/sodipodi-0.dtd"
   xmlns:inkscape="http://www.inkscape.org/namespaces/inkscape"
   width="100"
   height="100"
   viewBox="0 0 100 100"
   id="login-icon"
   version="1.1"
   inkscape:version="0.91 r13725"
   sodipodi:docname="lock-icon.svg">
  <defs
     id="defs4" />
  <sodipodi:namedview
     id="base"
     pagecolor="#ffffff"
     bordercolor="#666666"
     borderopacity="1.0"
     inkscape:pageopacity="0.0"
     inkscape:pageshadow="2"
     inkscape:zoom="7.9195959"
     inkscape:cx="90.298649"
     inkscape:cy="60.329992"
     inkscape:document-units="px"
     inkscape:current-layer="layer1"
     showgrid="false"
     units="px"
     inkscape:window-width="2560"
     inkscape:window-height="1377"
     inkscape:window-x="1912"
     inkscape:window-y="-8"
     inkscape:window-maximized="1" />
  <metadata
     id="metadata7">
    <rdf:RDF>
      <cc:Work
         rdf:about="">
        <dc:format>image/svg+xml</dc:format>
        <dc:type
           rdf:resource="http://purl.org/dc/dcmitype/StillImage" />
        <dc:title></dc:title>
      </cc:Work>
    </rdf:RDF>
  </metadata>
  <g
     inkscape:label="Layer 1"
     inkscape:groupmode="layer"
     id="layer1"
     transform="translate(0,-952.36214)">
    <path
       style="fill-opacity:1;fill-rule:nonzero;stroke:none;stroke-opacity:1"
       d="m 40.693021,991.23982 c -2.539545,0 -4.584382,2.04484 -4.584382,4.58439 l 0,13.63489 13.992265,0 0,-6.2762 9.855264,12.7992 -9.855264,12.7993 0,-6.2763 -13.992265,0 0,9.2845 c 0,2.5396 2.044837,4.5844 4.584382,4.5844 l 42.665867,0 c 2.539544,0 4.584382,-2.0448 4.584382,-4.5844 l 0,-35.96539 c 0,-2.53955 -2.044838,-4.58439 -4.584382,-4.58439 l -42.665867,0 z m -4.584382,31.26528 0,-13.046 -22.567091,0 0,13.046 22.567091,0 z"
       id="rect4136"
       inkscape:connector-curvature="0" />
    <rect
       style="fill-opacity:1;fill-rule:nonzero;stroke:none;stroke-opacity:1"
       id="rect4138"
       width="9.1680298"
       height="31.970568"
       x="41.373642"
       y="968.08429"
       ry="4.5840149" />
    <rect
       y="968.08429"
       x="73.508766"
       height="31.970568"
       width="9.1680298"
       id="rect4140"
       style="fill-opacity:1;fill-rule:nonzero;stroke:none;stroke-opacity:1"
       ry="4.5840149" />
    <rect
       y="-77.458069"
       x="-977.25232"
       height="31.970568"
       width="9.1680298"
       id="rect4142"
       style="fill-opacity:1;fill-rule:nonzero;stroke:none;stroke-opacity:1"
       transform="matrix(0,-1,-1,0,0,0)" />
  </g>
</svg>
