<?xml version="1.0" encoding="UTF-8" standalone="no"?>
<!-- Created with Inkscape (http://www.inkscape.org/) -->

<svg
   xmlns:dc="http://purl.org/dc/elements/1.1/"
   xmlns:cc="http://creativecommons.org/ns#"
   xmlns:rdf="http://www.w3.org/1999/02/22-rdf-syntax-ns#"
   xmlns:svg="http://www.w3.org/2000/svg"
   xmlns="http://www.w3.org/2000/svg"
   xmlns:sodipodi="http://sodipodi.sourceforge.net/DTD/sodipodi-0.dtd"
   xmlns:inkscape="http://www.inkscape.org/namespaces/inkscape"
   width="100"
   height="100"
   viewBox="0 0 100 100"
   id="logo"
   version="1.1"
   inkscape:version="0.91 r13725"
   sodipodi:docname="logo.svg">
  <defs
     id="defs4" />
  <sodipodi:namedview
     id="base"
     pagecolor="#ffffff"
     bordercolor="#666666"
     borderopacity="1.0"
     inkscape:pageopacity="0.0"
     inkscape:pageshadow="2"
     inkscape:zoom="9.5895125"
     inkscape:cx="43.271721"
     inkscape:cy="51.920893"
     inkscape:document-units="px"
     inkscape:current-layer="layer1"
     showgrid="false"
     units="px"
     inkscape:window-width="2560"
     inkscape:window-height="1377"
     inkscape:window-x="1912"
     inkscape:window-y="-8"
     inkscape:window-maximized="1" />
  <metadata
     id="metadata7">
    <rdf:RDF>
      <cc:Work
         rdf:about="">
        <dc:format>image/svg+xml</dc:format>
        <dc:type
           rdf:resource="http://purl.org/dc/dcmitype/StillImage" />
        <dc:title></dc:title>
      </cc:Work>
    </rdf:RDF>
  </metadata>
  <g
     inkscape:label="Layer 1"
     inkscape:groupmode="layer"
     id="layer1"
     transform="translate(0,-952.36216)">
    <path
       style="fill-opacity:1;fill-rule:nonzero;stroke:none;stroke-opacity:1"
       d="m 50.575382,957.15451 c -13.365538,0 -24.124009,3.69339 -24.124009,8.28254 l 0,61.23545 48.251123,-10.8694 0,-50.36605 c 0,-4.58915 -10.761575,-8.28254 -24.127114,-8.28254 z m 0,31.08979 a 12.187119,12.187119 0 0 1 12.189333,12.1862 12.187119,12.187119 0 0 1 -12.189333,12.1863 12.187119,12.187119 0 0 1 -12.186226,-12.1863 12.187119,12.187119 0 0 1 12.186226,-12.1862 z"
       id="path4235"
       inkscape:connector-curvature="0" />
    <path
       style="fill-opacity:1;fill-rule:nonzero;stroke:none;stroke-opacity:1"
       d="m 95.54231,1031.3245 -11.191942,-10.9407 -9.878108,1.5887 -48.229448,11.5751 -12.151285,5.3772 -8.3251537,13.4522 10.4793247,-11.2659 58.248237,-14.4392 8.443789,-1.4915 z"
       id="path4231"
       inkscape:connector-curvature="0"
       sodipodi:nodetypes="cccccccccc" />
    <path
       style="fill-opacity:1;fill-rule:nonzero;stroke:none;stroke-opacity:1"
       d="m 74.702496,1023.536 -48.251123,10.8694 0,1.0186 c 0,4.5891 10.758471,8.2825 24.124009,8.2825 13.365539,0 24.127114,-3.6934 24.127114,-8.2825 l 0,-11.888 z"
       id="path4227"
       inkscape:connector-curvature="0" />
    <path
       sodipodi:nodetypes="cccccccccc"
       inkscape:connector-curvature="0"
       id="path4238"
       d="m 94.916627,996.28619 -8.689208,13.46111 -13.423648,4.1956 -45.830994,11.8879 -9.127148,2.2488 -17.2932851,-3.9626 17.5704051,8.1303 54.702697,-13.605 15.847711,-6.2884 z"
       style="fill-opacity:1;fill-rule:nonzero;stroke:none;stroke-opacity:1" />
  </g>
</svg>
