<?xml version="1.0" encoding="UTF-8" standalone="no"?>
<!-- Created with Inkscape (http://www.inkscape.org/) -->

<svg
   xmlns:dc="http://purl.org/dc/elements/1.1/"
   xmlns:cc="http://creativecommons.org/ns#"
   xmlns:rdf="http://www.w3.org/1999/02/22-rdf-syntax-ns#"
   xmlns:svg="http://www.w3.org/2000/svg"
   xmlns="http://www.w3.org/2000/svg"
   xmlns:sodipodi="http://sodipodi.sourceforge.net/DTD/sodipodi-0.dtd"
   xmlns:inkscape="http://www.inkscape.org/namespaces/inkscape"
   width="100"
   height="100"
   viewBox="0 0 100 100"
   id="reset-icon"
   version="1.1"
   inkscape:version="0.91 r13725"
   sodipodi:docname="reset-icon.svg">
  <defs
     id="defs4">
    <inkscape:perspective
       sodipodi:type="inkscape:persp3d"
       inkscape:vp_x="0 : 50 : 1"
       inkscape:vp_y="0 : 1000 : 0"
       inkscape:vp_z="100 : 50 : 1"
       inkscape:persp3d-origin="50 : 33.333333 : 1"
       id="perspective4136" />
  </defs>
  <sodipodi:namedview
     id="base"
     pagecolor="#ffffff"
     bordercolor="#666666"
     borderopacity="1.0"
     inkscape:pageopacity="0.0"
     inkscape:pageshadow="2"
     inkscape:zoom="7.9195959"
     inkscape:cx="39.470089"
     inkscape:cy="44.706046"
     inkscape:document-units="px"
     inkscape:current-layer="layer1"
     showgrid="false"
     units="px"
     inkscape:window-width="2560"
     inkscape:window-height="1377"
     inkscape:window-x="1912"
     inkscape:window-y="-8"
     inkscape:window-maximized="1" />
  <metadata
     id="metadata7">
    <rdf:RDF>
      <cc:Work
         rdf:about="">
        <dc:format>image/svg+xml</dc:format>
        <dc:type
           rdf:resource="http://purl.org/dc/dcmitype/StillImage" />
        <dc:title />
      </cc:Work>
    </rdf:RDF>
  </metadata>
  <g
     inkscape:label="Layer 1"
     inkscape:groupmode="layer"
     id="layer1"
     transform="translate(0,-952.36216)">
    <path
       style="fill-opacity:1;fill-rule:nonzero;stroke:none;stroke-opacity:1"
       d="m 70,12.587891 0,8.738281 A 35,35 0 0 1 85,50 35,35 0 0 1 50,85 35,35 0 0 1 15,50 35,35 0 0 1 28.455078,22.501953 L 24.386719,16.261719 A 42.5,42.5 0 0 0 7.5,50 42.5,42.5 0 0 0 50,92.5 42.5,42.5 0 0 0 92.5,50 42.5,42.5 0 0 0 70,12.587891 Z"
       transform="translate(0,952.36216)"
       id="path4268"
       inkscape:connector-curvature="0" />
    <path
       style="fill-opacity:1;fill-rule:nonzero;stroke:none;stroke-opacity:1"
       d="m 55.737456,959.00211 27.286977,-0.43527 -19.869751,27.39244 -7.577348,-26.73643 z"
       id="rect4277"
       inkscape:connector-curvature="0"
       sodipodi:nodetypes="ccccc" />
  </g>
</svg>
