<?xml version="1.0" encoding="UTF-8" standalone="no"?>
<!-- Created with Inkscape (http://www.inkscape.org/) -->

<svg
   xmlns:dc="http://purl.org/dc/elements/1.1/"
   xmlns:cc="http://creativecommons.org/ns#"
   xmlns:rdf="http://www.w3.org/1999/02/22-rdf-syntax-ns#"
   xmlns:svg="http://www.w3.org/2000/svg"
   xmlns="http://www.w3.org/2000/svg"
   xmlns:sodipodi="http://sodipodi.sourceforge.net/DTD/sodipodi-0.dtd"
   xmlns:inkscape="http://www.inkscape.org/namespaces/inkscape"
   width="100"
   height="100"
   viewBox="0 0 100 100"
   id="settings-icon"
   version="1.1"
   inkscape:version="0.92.4 (5da689c313, 2019-01-14)"
   sodipodi:docname="settings-icon.svg">
  <defs
     id="defs4273">
    <inkscape:perspective
       sodipodi:type="inkscape:persp3d"
       inkscape:vp_x="0 : 50 : 1"
       inkscape:vp_y="0 : 1000 : 0"
       inkscape:vp_z="100 : 50 : 1"
       inkscape:persp3d-origin="50 : 33.333333 : 1"
       id="perspective6536" />
  </defs>
  <sodipodi:namedview
     id="base"
     pagecolor="#ffffff"
     bordercolor="#666666"
     borderopacity="1.0"
     inkscape:pageopacity="0.0"
     inkscape:pageshadow="2"
     inkscape:zoom="5.6568543"
     inkscape:cx="21.074435"
     inkscape:cy="54.612307"
     inkscape:document-units="px"
     inkscape:current-layer="layer1"
     showgrid="false"
     units="px"
     inkscape:window-width="2560"
     inkscape:window-height="1381"
     inkscape:window-x="1920"
     inkscape:window-y="1104"
     inkscape:window-maximized="1" />
  <metadata
     id="metadata4276">
    <rdf:RDF>
      <cc:Work
         rdf:about="">
        <dc:format>image/svg+xml</dc:format>
        <dc:type
           rdf:resource="http://purl.org/dc/dcmitype/StillImage" />
        <dc:title />
      </cc:Work>
    </rdf:RDF>
  </metadata>
  <g
     inkscape:label="Layer 1"
     inkscape:groupmode="layer"
     id="layer1"
     transform="translate(0,-952.36216)"
     style="display:inline">
    <g
       style=""
       id="g6500"
       transform="matrix(0.88790475,0,0,0.88790475,5.606922,112.35747)" />
    <g
       style=""
       id="g6504"
       transform="matrix(0,-0.88790475,0.88790475,0,-840.00453,1046.7551)" />
    <g
       style=""
       transform="matrix(-0.62784346,-0.62784346,0.62784346,-0.62784346,-547.93759,1663.0809)"
       id="g6510" />
    <path
       style="fill-opacity:1;fill-rule:nonzero;stroke:none;stroke-width:0.5;stroke-linecap:butt;stroke-miterlimit:4;stroke-dasharray:none;stroke-opacity:1"
       d="m 38.744141,0 0,11.642578 A 40,40 0 0 0 26.724609,17.529297 L 19.242188,10.046875 6.6855469,22.603516 14.900391,30.818359 a 40,40 0 0 0 -4.322266,12.677735 l -10.578125,0 0,17.759765 11.642578,0 a 40,40 0 0 0 5.886719,12.017579 l -7.482422,7.484374 12.556641,12.556641 8.214843,-8.214844 a 40,40 0 0 0 12.679688,4.322266 l 0,10.578125 17.757812,0 0,-11.642578 a 40,40 0 0 0 12.019532,-5.886719 l 7.482421,7.482422 12.556641,-12.556641 -8.214844,-8.214843 a 40,40 0 0 0 4.322266,-12.679688 l 10.578125,0 0,-17.757812 -11.642578,0 A 40,40 0 0 0 82.470703,26.724609 L 89.953125,19.242188 77.396484,6.6855469 69.181641,14.900391 A 40,40 0 0 0 56.501953,10.578125 L 56.501953,0 38.744141,0 Z M 50,22.751953 A 27.247845,27.247845 0 0 1 77.248047,50 27.247845,27.247845 0 0 1 50,77.248047 27.247845,27.247845 0 0 1 22.751953,50 27.247845,27.247845 0 0 1 50,22.751953 Z"
       id="rect6520"
       transform="translate(0,952.36216)"
       inkscape:connector-curvature="0" />
  </g>
</svg>
